<svg width="353.62128" height="353.62137" version="1.1" viewBox="0 0 353.62128 353.62137" xmlns="http://www.w3.org/2000/svg">
 <defs>
  <clipPath id="clipPath220">
   <path d="m6879.06 6444.77c-420.31 0-767.52-312.82-821.62-718.34 225.91-178.56 511.31-285.18 821.62-285.18 310.32 0 595.71 106.62 821.62 285.18-54.1 405.52-401.3 718.34-821.62 718.34z"/>
  </clipPath>
  <clipPath id="clipPath240">
   <path d="m7459.67 7140.07c0-320.67-259.95-580.61-580.61-580.61s-580.61 259.94-580.61 580.61c0 320.66 259.95 580.6 580.61 580.6s580.61-259.94 580.61-580.6z"/>
  </clipPath>
 </defs>
 <g transform="matrix(1.3333333,0,0,-1.3333333,-1036.2683,983.92238)">
  <g transform="scale(.1)">
   <path d="m10424.172 6053.338c0 732.37-593.7097 1326.08-1326.0797 1326.08-732.38 0-1326.08-593.71-1326.08-1326.08 0-422.06 197.2-798.03 504.46-1040.9 54.1 405.52 401.31 718.34 821.62 718.34 420.32 0 767.52-312.82 821.62-718.34 307.2497 242.87 504.4597 618.84 504.4597 1040.9" style="fill:#b3b3b3"/>
   <g transform="translate(2219.0322,-713.99244)" style="fill:#ffffff">
    <g clip-path="url(#clipPath220)" style="fill:#ffffff">
     <path d="m6879.06 6444.77c-420.31 0-767.52-312.82-821.62-718.34 225.91-178.56 511.31-285.18 821.62-285.18 310.32 0 595.71 106.62 821.62 285.18-54.1 405.52-401.3 718.34-821.62 718.34" style="fill:#ffffff"/>
    </g>
   </g>
   <g transform="translate(2219.0322,-713.99244)" style="fill:#ffffff">
    <g clip-path="url(#clipPath240)" style="fill:#ffffff">
     <path d="m7459.67 7140.07c0-320.67-259.95-580.61-580.61-580.61s-580.61 259.94-580.61 580.61c0 320.66 259.95 580.6 580.61 580.6s580.61-259.94 580.61-580.6" style="fill:#ffffff"/>
    </g>
   </g>
  </g>
 </g>
</svg>
